<svg width="22" height="22" viewBox="0 0 22 22" fill="none" xmlns="http://www.w3.org/2000/svg">
<path d="M8.70825 13.2915L8.70825 10.5415" stroke="#D31202" stroke-linecap="round"/>
<path d="M13.2915 13.2915L13.2915 10.5415" stroke="#D31202" stroke-linecap="round"/>
<path d="M2.74988 5.9585H19.2499V5.9585C18.1219 5.9585 17.5579 5.9585 17.1277 6.17946C16.756 6.3704 16.4534 6.67297 16.2625 7.04469C16.0415 7.47488 16.0415 8.03886 16.0415 9.16683V13.8752C16.0415 15.7608 16.0415 16.7036 15.4558 17.2894C14.87 17.8752 13.9272 17.8752 12.0415 17.8752H9.95821C8.07259 17.8752 7.12978 17.8752 6.544 17.2894C5.95821 16.7036 5.95821 15.7608 5.95821 13.8752V9.16683C5.95821 8.03886 5.95821 7.47488 5.73724 7.04469C5.54631 6.67297 5.24374 6.3704 4.87202 6.17946C4.44183 5.9585 3.87785 5.9585 2.74988 5.9585V5.9585Z" stroke="#D31202" stroke-linecap="round"/>
<path d="M8.70817 3.20839C8.70817 3.20839 9.1665 2.2915 10.9998 2.2915C12.8332 2.2915 13.2915 3.20817 13.2915 3.20817" stroke="#D31202" stroke-linecap="round"/>
</svg>
