<svg width="16" height="16" viewBox="0 0 16 16" fill="none" xmlns="http://www.w3.org/2000/svg">
<g clip-path="url(#clip0_2030_462)">
<path d="M8.57127 10.2859L5.1427 10.903L5.71413 7.42871L12.2627 0.902997C12.3689 0.795878 12.4953 0.710856 12.6346 0.652835C12.7739 0.594814 12.9233 0.564941 13.0741 0.564941C13.225 0.564941 13.3744 0.594814 13.5136 0.652835C13.6529 0.710856 13.7793 0.795878 13.8856 0.902997L15.097 2.11443C15.2041 2.22067 15.2891 2.34707 15.3471 2.48634C15.4052 2.62561 15.435 2.77498 15.435 2.92585C15.435 3.07672 15.4052 3.2261 15.3471 3.36537C15.2891 3.50464 15.2041 3.63104 15.097 3.73728L8.57127 10.2859Z" stroke="#0174DE" stroke-linecap="round" stroke-linejoin="round"/>
<path d="M13.7141 10.8571V14.2856C13.7141 14.5887 13.5937 14.8794 13.3794 15.0938C13.1651 15.3081 12.8744 15.4285 12.5713 15.4285H1.71415C1.41104 15.4285 1.12035 15.3081 0.906024 15.0938C0.691697 14.8794 0.571289 14.5887 0.571289 14.2856V3.4285C0.571289 3.1254 0.691697 2.83471 0.906024 2.62038C1.12035 2.40605 1.41104 2.28564 1.71415 2.28564H5.14272" stroke="#0174DE" stroke-linecap="round" stroke-linejoin="round"/>
</g>
<defs>
<clipPath id="clip0_2030_462">
<rect width="16" height="16" fill="white"/>
</clipPath>
</defs>
</svg>
