<svg xmlns="http://www.w3.org/2000/svg" xmlns:xlink="http://www.w3.org/1999/xlink" viewBox="0,0,256,256" width="64px" height="64px"><g fill="#23b7ff" fill-rule="nonzero" stroke="none" stroke-width="1" stroke-linecap="butt" stroke-linejoin="miter" stroke-miterlimit="10" stroke-dasharray="" stroke-dashoffset="0" font-family="none" font-weight="none" font-size="none" text-anchor="none" style="mix-blend-mode: normal"><g transform="scale(4,4)"><path d="M28.01758,5.51758l-1.00586,0.00781c-0.674,0.029 -1.35048,0.08355 -2.02148,0.18555c-5.392,0.76 -10.35475,4.14431 -13.09375,8.94531c-1.38,2.391 -2.2092,5.11863 -2.4082,7.89063l-0.04297,1.02344l-0.01953,0.8457l-0.03906,1.68945l-0.07617,3.37891l-0.28711,12.51563h-6.02344l10,14l10,-14h-6.02344l-0.28711,-12.51562l-0.14062,-6.57812c0.039,-1.727 0.46091,-3.443 1.25391,-5c1.576,-3.124 4.66927,-5.51441 8.19727,-6.19141c0.44,-0.091 0.88694,-0.14836 1.33594,-0.19336l1.52539,-0.07617l3.37891,-0.14844l6.75977,-0.29687v-5l-6.75781,-0.29687l-3.37891,-0.14844zM51,8l-10,14h6.02344l0.28711,12.51563l0.14063,6.57813c-0.039,1.727 -0.46091,3.443 -1.25391,5c-1.576,3.124 -4.66927,5.51441 -8.19727,6.19141c-0.44,0.091 -0.88694,0.14836 -1.33594,0.19336l-1.52539,0.07617l-3.37891,0.14844l-6.75977,0.29688v5l6.75781,0.29688l3.37891,0.14844l0.8457,0.03711l1.00586,-0.00781c0.674,-0.029 1.35048,-0.08355 2.02148,-0.18555c5.392,-0.76 10.35475,-4.14431 13.09375,-8.94531c1.38,-2.391 2.2092,-5.11863 2.4082,-7.89062l0.04297,-1.02344l0.01953,-0.8457l0.03906,-1.68945l0.07617,-3.37891l0.28711,-12.51562h6.02344z"></path></g></g></svg>